<svg width="403" height="122" viewBox="0 0 403 122" fill="none" xmlns="http://www.w3.org/2000/svg">
<path d="M29.8835 121.64C26.7262 121.64 24.4648 120.957 23.0995 119.592C21.7342 118.141 21.0515 115.453 21.0515 111.528C21.0515 108.883 21.3075 105.683 21.8195 101.928C22.3315 98.1733 23.2275 92.4987 24.5075 84.904C24.6782 83.88 25.3608 79.7413 26.5555 72.488C27.7502 65.1493 28.8168 57.4693 29.7555 49.448C30.6088 42.6213 31.0355 37.5013 31.0355 34.088C31.0355 30.248 29.6275 28.328 26.8115 28.328C24.6782 28.328 21.9902 29.48 18.7475 31.784C15.5902 34.0027 12.1768 37.5867 8.5075 42.536C7.31283 44.1573 5.99017 44.968 4.5395 44.968C3.34483 44.968 2.27817 44.4133 1.3395 43.304C0.486167 42.1093 0.0595 40.7867 0.0595 39.336C0.0595 37.8853 0.3155 36.52 0.8275 35.24C1.3395 33.8747 2.27817 32.2533 3.6435 30.376C7.82483 24.6587 12.4755 20.264 17.5955 17.192C22.7155 14.0347 28.0915 12.456 33.7235 12.456C38.4168 12.456 41.9155 13.9067 44.2195 16.808C46.6088 19.7093 47.8035 23.9333 47.8035 29.48C47.8035 34.4293 47.1208 41.5973 45.7555 50.984C50.0222 38.3547 55.4408 28.7973 62.0115 22.312C68.5822 15.7413 76.3048 12.456 85.1795 12.456C92.1768 12.456 97.4248 14.4613 100.924 18.472C104.508 22.3973 106.3 27.688 106.3 34.344C106.3 38.0987 105.745 42.664 104.636 48.04L96.8275 84.648C95.9742 88.9147 95.5475 92.584 95.5475 95.656C95.5475 99.24 96.3582 101.928 97.9795 103.72C99.6862 105.512 102.033 106.408 105.02 106.408C107.836 106.408 110.566 105.469 113.212 103.592C115.942 101.715 119.142 98.6 122.812 94.248C123.836 93.0533 124.988 92.456 126.268 92.456C127.377 92.456 128.23 92.968 128.827 93.992C129.51 95.016 129.852 96.424 129.852 98.216C129.852 101.544 129.041 104.189 127.42 106.152C122.982 111.528 118.588 115.453 114.236 117.928C109.884 120.403 105.318 121.64 100.54 121.64C93.2862 121.64 87.6115 119.507 83.5155 115.24C79.4195 110.888 77.3715 105.085 77.3715 97.832C77.3715 95.016 77.5848 91.944 78.0115 88.616C78.5235 85.288 79.3342 81.064 80.4435 75.944L85.5635 52.52C85.7342 51.752 86.0328 50.3867 86.4595 48.424C86.8862 46.4613 87.2275 44.6267 87.4835 42.92C87.7395 41.128 87.8675 39.3787 87.8675 37.672C87.8675 34.9413 87.0995 32.7653 85.5635 31.144C84.0275 29.5227 81.8515 28.712 79.0355 28.712C73.9155 28.712 68.7955 31.4427 63.6755 36.904C58.5555 42.3653 53.8195 51.1973 49.4675 63.4C45.1155 75.5173 41.7022 91.048 39.2275 109.992C38.6302 114.344 37.7342 117.373 36.5395 119.08C35.4302 120.787 33.2115 121.64 29.8835 121.64ZM137.121 52.904C133.537 52.904 130.849 52.0933 129.057 50.472C127.265 48.7653 126.369 46.4187 126.369 43.432C126.369 40.4453 127.521 37.9707 129.825 36.008C132.214 33.96 135.158 32.936 138.657 32.936C141.814 32.936 144.374 33.704 146.337 35.24C148.299 36.776 149.281 38.952 149.281 41.768C149.281 45.1813 148.171 47.912 145.953 49.96C143.734 51.9227 140.79 52.904 137.121 52.904ZM124.833 121.64C122.102 121.64 120.225 121.085 119.201 119.976C118.177 118.867 117.665 117.117 117.665 114.728C117.665 114.045 117.75 112.851 117.921 111.144C119.286 95.528 121.547 81.32 124.705 68.52C125.387 65.8747 126.497 64.04 128.033 63.016C129.654 61.9067 132.214 61.352 135.713 61.352C139.382 61.352 141.217 62.8453 141.217 65.832C141.217 66.2587 141.131 67.0693 140.961 68.264C137.121 86.5253 134.817 101.843 134.049 114.216C133.878 116.947 133.067 118.867 131.617 119.976C130.166 121.085 127.905 121.64 124.833 121.64ZM218.059 121.64C210.891 121.64 205.472 119.677 201.803 115.752C198.133 111.741 196.299 106.408 196.299 99.752C196.299 95.9973 196.853 91.432 197.963 86.056L205.899 49.448C206.069 48.7653 206.453 46.888 207.051 43.816C207.733 40.744 208.075 37.416 208.075 33.832C208.075 31.784 207.648 30.248 206.795 29.224C206.027 28.2 204.96 27.688 203.595 27.688C201.035 27.688 198.048 28.9253 194.635 31.4C191.221 33.7893 187.637 37.5013 183.883 42.536C182.688 44.1573 181.365 44.968 179.915 44.968C178.72 44.968 177.653 44.4133 176.715 43.304C175.861 42.1093 175.434 40.7867 175.434 39.336C175.434 36.6907 176.629 33.704 179.019 30.376C187.723 18.4293 197.92 12.456 209.611 12.456C214.816 12.456 218.869 14.0347 221.771 17.192C224.757 20.3493 226.251 25 226.251 31.144C226.251 35.496 225.952 39.5067 225.355 43.176C224.757 46.8453 223.733 51.8373 222.283 58.152L217.035 81.576C216.864 82.344 216.565 83.7093 216.139 85.672C215.712 87.6347 215.371 89.512 215.115 91.304C214.859 93.0107 214.731 94.7173 214.731 96.424C214.731 99.1547 215.499 101.331 217.035 102.952C218.571 104.573 220.747 105.384 223.563 105.384C228.683 105.384 233.845 102.653 239.051 97.192C244.341 91.7307 249.205 82.9413 253.643 70.824C258.165 58.6213 261.664 43.048 264.139 24.104C264.736 19.752 265.589 16.7227 266.699 15.016C267.893 13.3093 270.155 12.456 273.483 12.456C276.469 12.456 278.688 13.352 280.139 15.144C281.589 16.936 282.315 19.8373 282.315 23.848C282.315 26.152 282.016 29.1813 281.419 32.936C280.907 36.6907 280.096 41.9387 278.987 48.68C276.683 61.736 274.848 73.7253 273.483 84.648C272.8 89.5973 272.459 93.2667 272.459 95.656C272.459 99.1547 273.227 101.843 274.763 103.72C276.384 105.512 278.517 106.408 281.163 106.408C283.979 106.408 286.709 105.469 289.355 103.592C292.085 101.715 295.285 98.6 298.955 94.248C299.979 93.0533 301.131 92.456 302.411 92.456C303.52 92.456 304.373 92.968 304.971 93.992C305.653 95.016 305.995 96.424 305.995 98.216C305.995 101.544 305.184 104.189 303.562 106.152C299.125 111.528 294.731 115.453 290.379 117.928C286.027 120.403 281.461 121.64 276.683 121.64C269.6 121.64 264.181 119.848 260.427 116.264C256.672 112.595 254.795 107.859 254.795 102.056C254.795 98.8133 255.477 92.4987 256.843 83.112C252.576 95.656 247.157 105.213 240.587 111.784C234.101 118.355 226.592 121.64 218.059 121.64ZM304.67 121.64C301.427 121.64 299.123 119.933 297.758 116.52C296.478 113.107 295.838 107.645 295.838 100.136C295.838 89.0427 297.416 78.504 300.574 68.52C301.342 66.0453 302.579 64.2533 304.286 63.144C306.078 61.9493 308.552 61.352 311.71 61.352C313.416 61.352 314.611 61.5653 315.294 61.992C315.976 62.4187 316.318 63.2293 316.318 64.424C316.318 65.7893 315.678 68.8613 314.398 73.64C313.544 77.0533 312.862 80.04 312.35 82.6C311.838 85.16 311.411 88.3173 311.07 92.072C313.886 84.7333 317.043 78.76 320.542 74.152C324.04 69.544 327.454 66.2587 330.782 64.296C334.195 62.3333 337.31 61.352 340.126 61.352C345.672 61.352 348.446 64.1253 348.446 69.672C348.446 70.7813 348.062 73.4693 347.294 77.736C346.611 81.1493 346.27 83.2827 346.27 84.136C346.27 87.1227 347.336 88.616 349.47 88.616C351.859 88.616 354.931 86.7387 358.686 82.984C359.795 81.8747 360.947 81.32 362.142 81.32C363.251 81.32 364.104 81.832 364.701 82.856C365.384 83.7947 365.726 85.0747 365.726 86.696C365.726 89.8533 364.872 92.328 363.166 94.12C360.776 96.5947 357.96 98.728 354.718 100.52C351.56 102.227 348.19 103.08 344.606 103.08C340.083 103.08 336.627 101.928 334.238 99.624C331.934 97.32 330.782 94.2053 330.782 90.28C330.782 89 330.91 87.72 331.166 86.44C331.336 84.7333 331.422 83.5813 331.422 82.984C331.422 81.6187 330.952 80.936 330.014 80.936C328.734 80.936 327.027 82.3867 324.894 85.288C322.846 88.104 320.798 91.8587 318.75 96.552C316.702 101.245 315.038 106.195 313.758 111.4C312.819 115.411 311.71 118.141 310.43 119.592C309.235 120.957 307.315 121.64 304.67 121.64ZM390.824 102.952C391.762 102.099 392.701 101.672 393.64 101.672C394.664 101.672 395.474 102.269 396.072 103.464C396.754 104.573 397.096 105.939 397.096 107.56C397.096 111.144 395.816 114.003 393.256 116.136C388.818 119.805 383.784 121.64 378.152 121.64C370.045 121.64 364.114 118.269 360.36 111.528C356.605 104.701 354.728 95.8267 354.728 84.904C354.728 74.4933 356.05 62.632 358.696 49.32C361.426 36.008 365.394 24.5733 370.6 15.016C375.89 5.45866 382.162 0.679993 389.416 0.679993C393.512 0.679993 396.712 2.59999 399.016 6.43999C401.405 10.1947 402.6 15.6133 402.6 22.696C402.6 32.8507 399.784 44.6267 394.152 58.024C388.605 71.4213 381.01 84.648 371.368 97.704C371.965 101.203 373.032 103.72 374.568 105.256C376.104 106.792 378.194 107.56 380.84 107.56C382.29 107.56 383.912 107.133 385.704 106.28C387.581 105.427 389.288 104.317 390.824 102.952ZM386.6 13.352C384.637 13.352 382.418 16.8933 379.944 23.976C377.469 31.0587 375.293 39.848 373.416 50.344C371.538 60.84 370.514 70.9093 370.344 80.552C376.402 70.568 381.224 60.584 384.808 50.6C388.392 40.5307 390.184 31.3573 390.184 23.08C390.184 16.5947 388.989 13.352 386.6 13.352Z" fill="#AA96DA"/>
</svg>
